<?xml version="1.0" standalone="no"?><!DOCTYPE svg PUBLIC "-//W3C//DTD SVG 1.1//EN"
    "http://www.w3.org/Graphics/SVG/1.1/DTD/svg11.dtd">
<svg t="1617932534089" class="icon" viewBox="0 0 1024 1024" version="1.1" xmlns="http://www.w3.org/2000/svg" p-id="6609"
     xmlns:xlink="http://www.w3.org/1999/xlink" width="200" height="200">
    <defs>
        <style type="text/css"></style>
    </defs>
    <path
        d="M896 569.81a34.91 34.91 0 0 1 34.91 34.909v260.654c0 68.003-55.32 123.346-123.346 123.346H169.89A123.485 123.485 0 0 1 46.545 865.373v-637.65a123.485 123.485 0 0 1 123.346-123.345h353.745a34.91 34.91 0 1 1 0 69.818H169.891a53.597 53.597 0 0 0-53.527 53.528v637.672c0 29.51 24.017 53.528 53.527 53.528h637.673c29.51 0 53.527-24.018 53.527-53.528V604.742A34.91 34.91 0 0 1 896 569.832z m80.896-293.935c7.4 6.4 12.195 15.756 12.195 26.298 0 10.566-4.771 19.898-12.195 26.345L781.033 524.335a34.793 34.793 0 0 1-24.693 10.216 34.91 34.91 0 0 1-24.669-59.578l134.75-134.819C563.2 360.262 442.18 491.823 442.18 790.9a34.91 34.91 0 1 1-69.817 0c0-341.317 150.574-500.573 499.619-521.239L731.695 129.42a34.91 34.91 0 1 1 49.338-49.385l195.863 195.84z"
        fill="#5F75ED" p-id="6610"></path>
</svg>
