<?xml version="1.0" standalone="no"?><!DOCTYPE svg PUBLIC "-//W3C//DTD SVG 1.1//EN"
    "http://www.w3.org/Graphics/SVG/1.1/DTD/svg11.dtd">
<svg t="1617931450828" class="icon" viewBox="0 0 1024 1024" version="1.1" xmlns="http://www.w3.org/2000/svg" p-id="2526"
     xmlns:xlink="http://www.w3.org/1999/xlink" width="200" height="200">
    <defs>
        <style type="text/css"></style>
    </defs>
    <path
        d="M512 215c-14.4 0-28.9 0.9-43.4 2.8-26.4 3.4-37.3 35.6-18.5 54.4 6.1 6.1 14.2 9.4 22.7 9.4 1.4 0 2.8-0.1 4.1-0.3 11.6-1.5 23.3-2.3 35.1-2.3 158.8 0 299.2 142.9 357.8 212 10.2 12 10.1 29.6-0.2 41.5-14.3 16.6-35.2 40.3-54.3 59-12.7 12.5-12.8 32.9-0.2 45.5 6.2 6.2 14.4 9.4 22.7 9.4 8.1 0 16.2-3 22.4-9.2 34.8-34.1 61.3-65.6 77.1-85.7 18.4-23.3 18.4-55.9 0-79.3-25.8-32.7-79.8-95.8-152.3-151.3C692.7 250.7 601 215 512 215zM421.3 421L603 602.7l-0.1 0.1c-24.3 24.4-56.6 37.8-90.9 37.8-34.3 0-66.5-13.4-90.8-37.7-24.3-24.3-37.7-56.6-37.7-90.8 0-34.5 13.4-66.8 37.8-91.1M242.2 164.6c-8.2 0-16.4 3.1-22.6 9.4-12.5 12.5-12.5 32.8 0 45.3l68 68c-16.1 10.2-32.3 21.5-48.4 33.8-72.5 55.5-126.6 118.6-152.3 151.3-18.4 23.3-18.4 55.9 0 79.3 25.8 32.7 79.8 95.8 152.3 151.3C331.3 773.4 423 809 512 809c73.5 0 148.9-24.4 224.8-72.6l68.3 68.3c6.2 6.2 14.4 9.4 22.6 9.4s16.4-3.1 22.6-9.4c12.5-12.5 12.5-32.8 0-45.3L264.9 174c-6.3-6.3-14.5-9.4-22.7-9.4zM512 745c-159.1 0-299.6-143.3-358-212.4-10.1-11.9-10.1-29.4 0-41.3 35.1-41.5 99.7-109.6 180.2-157.5l41.9 41.9c-34.9 34.8-56.6 83-56.6 136.3 0 106.2 86.3 192.5 192.5 192.5 53.2 0 101.4-21.6 136.3-56.6l42 42C636.6 722 575.8 745 512 745z"
        p-id="2527" fill="#5F75ED"></path>
</svg>
