<?xml version="1.0" standalone="no"?><!DOCTYPE svg PUBLIC "-//W3C//DTD SVG 1.1//EN"
    "http://www.w3.org/Graphics/SVG/1.1/DTD/svg11.dtd">
<svg t="1617958003865" class="icon" viewBox="0 0 1024 1024" version="1.1" xmlns="http://www.w3.org/2000/svg"
     p-id="14480" xmlns:xlink="http://www.w3.org/1999/xlink" width="200" height="200">
    <defs>
        <style type="text/css"></style>
    </defs>
    <path
        d="M119.806985 462.583741h345.085075V123.009127C464.89206 54.670723 410.62052 0 345.085076 0h-225.278091C54.27154 0 0 55.71207 0 123.009127V338.524589c0 68.338404 54.27154 124.059152 119.806985 124.059152zM71.679393 123.009127c0-27.335362 21.503818-49.420598 48.127592-49.420598h225.278091c26.623774 0 48.127592 22.085237 48.127592 49.420598v264.93606H119.806985c-26.623774 0-48.127592-22.085237-48.127592-49.420598V123.009127zM1023.991322 319.086109V102.511945C1023.991322 34.173541 970.743773 0 904.184337 0H681.978221c-66.559436 0-119.806985 55.71207-119.806985 123.009127v339.574614h343.037093c65.535445 0 118.782993-55.720748 118.782993-123.009127V319.086109z m-71.679392 20.488505c0 27.335362-21.503818 49.41192-48.127593 49.41192H633.850628v-265.977407c0-27.335362 21.503818-49.420598 48.127593-49.420598h222.206116c26.623774 0 48.127592 22.085237 48.127593 49.420598V339.565936zM681.978221 1023.991322h227.326073c66.559436 0 114.687028-55.71207 114.687028-123.009127V684.425386c0-68.338404-53.247549-123.009127-119.806985-123.009127h-343.037092v339.574614c0 67.288379 54.27154 123.009127 120.830976 123.009127z m-48.127593-388.986534h270.333709c26.623774 0 48.127592 22.076559 48.127593 49.41192v216.565487c0 27.335362-21.503818 49.420598-48.127593 49.420598H681.978221c-26.623774 0-48.127592-22.085237-48.127593-49.420598v-265.977407zM119.806985 1023.991322h225.278091c66.559436 0 119.806985-55.71207 119.806984-123.009127V561.407581H119.806985C54.27154 561.407581 0 617.128329 0 684.416708v216.565487C0 968.279252 54.27154 1023.991322 119.806985 1023.991322zM71.679393 684.416708c0-27.335362 21.503818-49.41192 48.127592-49.41192h273.405683v265.977407c0 27.335362-21.503818 49.420598-48.127592 49.420598h-225.278091c-26.623774 0-48.127592-23.135262-48.127592-49.420598V684.425386z"
        fill="#5F75ED" p-id="14481"></path>
</svg>
