<?xml version="1.0" standalone="no"?><!DOCTYPE svg PUBLIC "-//W3C//DTD SVG 1.1//EN"
    "http://www.w3.org/Graphics/SVG/1.1/DTD/svg11.dtd">
<svg t="1617933155565" class="icon" viewBox="0 0 1024 1024" version="1.1" xmlns="http://www.w3.org/2000/svg"
     p-id="15955" xmlns:xlink="http://www.w3.org/1999/xlink" width="200" height="200">
    <defs>
        <style type="text/css"></style>
    </defs>
    <path
        d="M507.072 512.32h412.16c17.408 0 31.616 14.336 31.616 32 0 264.96-212.864 479.68-475.392 479.68C212.864 1024 0 809.216 0 544.32c0-264.96 212.864-479.744 475.456-479.744 17.536 0 31.616 14.336 31.616 32v415.744z m-433.92 31.36c-0.192 224.512 180.032 406.656 402.56 406.848 210.688 0.192 385.92-163.52 401.984-375.552h-368.64a64.32 64.32 0 0 1-64-64.64V138.432c-209.92 16.384-371.904 192.96-371.904 405.312zM1024 419.84a32.128 32.128 0 0 1-32 32.256H640c-35.328 0-64-28.928-64-64.576V32.256C576 14.464 590.336 0 608 0 837.76 0 1024 187.968 1024 419.84z m-384-353.792v321.472h318.528C943.04 216.832 809.088 81.664 640 66.048v-0.064z"
        p-id="15956" fill="#5F75ED"></path>
</svg>
