<?xml version="1.0" standalone="no"?><!DOCTYPE svg PUBLIC "-//W3C//DTD SVG 1.1//EN"
    "http://www.w3.org/Graphics/SVG/1.1/DTD/svg11.dtd">
<svg t="1617939182374" class="icon" viewBox="0 0 1024 1024" version="1.1" xmlns="http://www.w3.org/2000/svg" p-id="3793"
     xmlns:xlink="http://www.w3.org/1999/xlink" width="200" height="200">
    <defs>
        <style type="text/css"></style>
    </defs>
    <path
        d="M753.578667 180.992c147.946667 39.637333 235.733333 191.701333 196.096 339.648a276.266667 276.266667 0 0 1-114.816 159.509333l74.602666 129.216a32 32 0 0 1-55.424 32l-76.373333-132.245333a276.053333 276.053333 0 0 1-167.637333 7.637333c-147.946667-39.637333-235.754667-191.722667-196.117334-339.669333 39.637333-147.946667 191.722667-235.733333 339.669334-196.096z m-16.576 61.824c-113.792-30.506667-230.784 37.034667-261.269334 150.826667-30.506667 113.813333 37.034667 230.805333 150.848 261.290666 113.813333 30.506667 230.784-37.034667 261.290667-150.848 30.485333-113.813333-37.056-230.784-150.869333-261.269333z"
        p-id="3794" fill="#bbbbbb"></path>
    <path d="M64 234.666667m32 0l256 0q32 0 32 32l0 0q0 32-32 32l-256 0q-32 0-32-32l0 0q0-32 32-32Z" p-id="3795"
          fill="#bbbbbb"></path>
    <path d="M64 469.333333m32 0l213.333333 0q32 0 32 32l0 0q0 32-32 32l-213.333333 0q-32 0-32-32l0 0q0-32 32-32Z"
          p-id="3796" fill="#bbbbbb"></path>
    <path d="M64 704m32 0l341.333333 0q32 0 32 32l0 0q0 32-32 32l-341.333333 0q-32 0-32-32l0 0q0-32 32-32Z" p-id="3797"
          fill="#bbbbbb"></path>
</svg>
